<?xml version="1.0" encoding="utf-8"?>
<!-- Generator: Adobe Illustrator 23.1.0, SVG Export Plug-In . SVG Version: 6.00 Build 0)  -->
<svg version="1.1" id="Capa_1" xmlns="http://www.w3.org/2000/svg" xmlns:xlink="http://www.w3.org/1999/xlink" x="0px" y="0px"
	 viewBox="0 0 500 500" enable-background="new 0 0 500 500" xml:space="preserve">
<g>
	<g>
		<g>
			<g>
				<path fill="#FFFFFF" d="M249.997,308.584c-8.542,0-15.517-6.871-15.62-15.436c-0.005-0.42-0.508-42.486-0.757-84.285
					c-0.542-90.548-0.542-90.548,4.805-96.446c5.795-6.393,15.676-6.879,22.068-1.084c4.329,3.924,5.949,9.722,4.745,15.042
					c-1.024,12.729-0.317,108.064,0.385,166.396c0.103,8.628-6.808,15.706-15.435,15.81
					C250.124,308.583,250.059,308.584,249.997,308.584z M261.591,133.385c-0.005,0.005-0.011,0.011-0.015,0.017
					C261.582,133.397,261.586,133.391,261.591,133.385z M261.606,133.369c-0.005,0.005-0.008,0.009-0.012,0.014
					C261.599,133.378,261.602,133.373,261.606,133.369z"/>
			</g>
		</g>
		<g>
			<path fill="#FFFFFF" d="M250.173,308.536c-9.787,0.001-19.57-3.574-27.155-10.724l-97.342-77.37
				c-6.755-5.369-7.878-15.197-2.51-21.952c5.368-6.755,15.195-7.879,21.953-2.509l97.922,77.831
				c0.442,0.351,0.863,0.725,1.264,1.121c3.237,3.201,8.503,3.2,11.737,0c0.402-0.398,0.827-0.773,1.27-1.125l97.574-77.486
				c6.758-5.365,16.585-4.238,21.95,2.519c5.366,6.757,4.238,16.585-2.519,21.951l-96.992,77.023
				C269.742,304.962,259.957,308.535,250.173,308.536z"/>
		</g>
	</g>
	<g>
		<path fill="#FFFFFF" d="M360.3,392.714H139.7c-24.942,0-45.233-20.292-45.233-45.234v-45.11c0-9.117,7.39-16.508,16.508-16.508
			s16.508,7.39,16.508,16.508v45.11c0,6.737,5.481,12.218,12.218,12.218H360.3c6.736,0,12.218-5.481,12.218-12.218v-45.11
			c0-9.117,7.39-16.508,16.508-16.508c9.117,0,16.508,7.39,16.508,16.508v45.11C405.534,372.422,385.243,392.714,360.3,392.714z"/>
	</g>
	<g>
		<path fill="#FFFFFF" d="M360.3,391.83H139.7c-24.454,0-44.348-19.896-44.348-44.35v-45.11c0-8.629,6.994-15.624,15.623-15.624
			s15.623,6.995,15.623,15.624v45.11c0,7.225,5.877,13.102,13.102,13.102H360.3c7.225,0,13.102-5.877,13.102-13.102v-45.11
			c0-8.629,6.994-15.624,15.623-15.624c8.629,0,15.623,6.995,15.623,15.624v45.11C404.649,371.934,384.754,391.83,360.3,391.83z"/>
	</g>
</g>
</svg>
