<svg xmlns="http://www.w3.org/2000/svg" width="23.832" height="23.83" viewBox="0 0 23.832 23.83">
  <g id="Group_3107" data-name="Group 3107" transform="translate(-141.073 -231.104)">
    <path id="Path_15279" data-name="Path 15279" d="M144.892,233.377q.711.706,1.421,1.413,1.536,1.534,3.069,3.071a1.089,1.089,0,1,1-1.534,1.527q-2.109-2.1-4.21-4.213a2.619,2.619,0,0,1-.234-.316l-.1.056a2.321,2.321,0,0,0-.028.255c0,.789,0,1.579,0,2.368a1.085,1.085,0,0,1-1.075,1.18,1.1,1.1,0,0,1-1.086-1.179q-.012-2.655-.007-5.31a1.082,1.082,0,0,1,1.113-1.11q2.655,0,5.31.006a1.106,1.106,0,0,1,1.163.909,1.061,1.061,0,0,1-.678,1.173,1.78,1.78,0,0,1-.562.078c-.729.008-1.459,0-2.189,0h-.347Z" transform="translate(-0.032 -0.013)" fill="#FFFFFF"/>
    <path id="Path_15280" data-name="Path 15280" d="M358.443,234.8a1.46,1.46,0,0,1-.192.341c-1.4,1.408-2.807,2.809-4.207,4.216a1.139,1.139,0,0,1-1.125.395,1.08,1.08,0,0,1-.467-1.864q1.638-1.66,3.3-3.3c.414-.412.839-.812,1.332-1.287-.212-.016-.312-.03-.411-.03-.777,0-1.555,0-2.332,0a1.082,1.082,0,0,1-1.172-1.083,1.1,1.1,0,0,1,1.186-1.078q2.655-.011,5.31-.007a1.075,1.075,0,0,1,1.1,1.085q.008,2.673-.005,5.346a1.085,1.085,0,1,1-2.161-.02c-.006-.753,0-1.507,0-2.26v-.344Z" transform="translate(-195.863 0)" fill="#FFFFFF"/>
    <path id="Path_15281" data-name="Path 15281" d="M144.888,448.554q1.106,0,2.212,0c.2,0,.408-.006.61.012a1.069,1.069,0,0,1,.175,2.1,1.871,1.871,0,0,1-.461.054q-2.621.01-5.242.01a1.076,1.076,0,0,1-1.108-1.078q0-2.693.009-5.386a1.073,1.073,0,0,1,.609-1.02,1.014,1.014,0,0,1,1.087.077,1.065,1.065,0,0,1,.467.956q0,1.221,0,2.442c0,.067.008.134.013.2l.142.113a1.4,1.4,0,0,1,.187-.344q2.1-2.115,4.21-4.219a1.151,1.151,0,0,1,1.058-.4,1.078,1.078,0,0,1,.664,1.726,3.165,3.165,0,0,1-.294.315q-2.043,2.045-4.087,4.088c-.092.092-.193.175-.289.263Z" transform="translate(0 -195.793)" fill="#FFFFFF"/>
    <path id="Path_15282" data-name="Path 15282" d="M356.945,448.473q-.763-.756-1.526-1.512-1.512-1.509-3.02-3.022a1.084,1.084,0,0,1,.5-1.855,1.126,1.126,0,0,1,1.094.388q2.1,2.11,4.214,4.215c.09.089.184.174.323.306.009-.178.019-.292.019-.406,0-.778-.007-1.556,0-2.334a1.074,1.074,0,0,1,1.065-1.12,1.1,1.1,0,0,1,1.1,1.1c0,.06,0,.12,0,.179q0,2.6.008,5.206a1.089,1.089,0,0,1-1.142,1.119c-1.711,0-3.423,0-5.134-.01a2.26,2.26,0,0,1-.5-.046,1.067,1.067,0,0,1-.828-1.109,1.044,1.044,0,0,1,1-1c.8-.025,1.6-.011,2.405-.013h.384Z" transform="translate(-195.819 -195.802)" fill="#FFFFFF"/>
  </g>
</svg>
